HIERARCHY
ROOT Hips
{
	OFFSET	0.00	0.00	0.00
	CHANNELS 6 Xposition Yposition Zposition Zrotation Xrotation Yrotation
	JOINT Spine
	{
		OFFSET	 0.00	0.01	 0.00
		CHANNELS 3 Zrotation Xrotation Yrotation
		JOINT Spine1
		{
			OFFSET	 0.00	 2.45913012437421	 0.00
			CHANNELS 3 Zrotation Xrotation Yrotation
            JOINT Neck
            {
                OFFSET	 0.00	 2.48462964506057	 0.00
                CHANNELS 3 Zrotation Xrotation Yrotation
                JOINT Head
                {
                    OFFSET	 0.00	 0.927524780924562	 0.00
                    CHANNELS 3 Zrotation Xrotation Yrotation
                    End Site 
                    {
                        OFFSET	 0.00	 1.14999962169752	 0.00
                    }
                }
            }
			JOINT LeftShoulder
			{
				OFFSET	 0.00	 2.48462964506057	 0.00
				CHANNELS 3 Zrotation Xrotation Yrotation
				JOINT LeftUpArm
				{
					OFFSET	 0.00	 1.24881979654096	 0.00
					CHANNELS 3 Zrotation Xrotation Yrotation
					JOINT LeftForeArm
					{
						OFFSET	 0.00	2.59758046908119	 0.00
						CHANNELS 3 Zrotation Xrotation Yrotation
						JOINT LeftHand
						{
							OFFSET	 0.00	2.45542024364365	 0.00
							CHANNELS 3 Zrotation Xrotation Yrotation
							JOINT LeftHandThumb 
							{
								OFFSET	 0.00	0.00	 0.00
								CHANNELS 3 Zrotation Xrotation Yrotation
								End Site
								{
									OFFSET	 0.00	0.00	1.00000003353624
								}
							}
							JOINT L_Wrist_End 
							{
								OFFSET	 0.00	0.99999967115358	 0.00
								CHANNELS 3 Zrotation Xrotation Yrotation
								End Site 
								{
									OFFSET	 0.00	 0.00	 0.00
								}
							}
						}
					}
				}
			}
			JOINT RightShoulder
			{
				OFFSET	 0.00	 2.48462964506057	 0.00
				CHANNELS 3 Zrotation Xrotation Yrotation
				JOINT RightUpArm
				{
					OFFSET	 0.00	 1.24881979654096	 0.00
					CHANNELS 3 Zrotation Xrotation Yrotation
					JOINT RightForeArm
					{
						OFFSET	 0.00	2.59758046908119	 0.00
						CHANNELS 3 Zrotation Xrotation Yrotation
						JOINT RightHand
						{
							OFFSET	 0.00	2.45542024364365	 0.00
							CHANNELS 3 Zrotation Xrotation Yrotation
							JOINT RightHandThumb 
							{
								OFFSET	 0.00	0.00	 0.00
								CHANNELS 3 Zrotation Xrotation Yrotation
								End Site
								{
									OFFSET	 0.00	0.00	1.00000003353624
								}
							}
							JOINT R_Wrist_End 
							{
								OFFSET	 0.00	0.99999967115358	 0.00
								CHANNELS 3 Zrotation Xrotation Yrotation
								End Site 
								{
									OFFSET	 0.00	 0.00	 0.00
								}
							}
						}
					}
				}
			}
		}
	}
	JOINT LeftUpLeg
	{
		OFFSET	 1.2719394002717	 0.00	 0.00
		CHANNELS 3 Zrotation Xrotation Yrotation
		JOINT LeftLowLeg
		{
			OFFSET	 0.00	-4.3429100912261	 0.00
			CHANNELS 3 Zrotation Xrotation Yrotation
			JOINT LeftFoot
			{
				OFFSET	 0.00	-4.48767017425826	 0.00
				CHANNELS 3 Zrotation Xrotation Yrotation
				JOINT LeftToeBase
                {
                    OFFSET	 0.00	0.00	 1.51507020887566
                    CHANNELS 3 Zrotation Xrotation Yrotation
                    End Site 
                    {
                        OFFSET	 0.00	0.00	 0.75000010571191
                    }
                }
			}
		}
	}
	JOINT RightUpLeg
	{
		OFFSET	 -1.2719393604653	 0.00	 0.00
		CHANNELS 3 Zrotation Xrotation Yrotation
		JOINT RightLowLeg
		{
			OFFSET	 0.00	-4.3429100912261	 0.00
			CHANNELS 3 Zrotation Xrotation Yrotation
			JOINT RightFoot
			{
				OFFSET	 0.00	-4.48767017425826	 0.00
				CHANNELS 3 Zrotation Xrotation Yrotation
				JOINT RightToeBase
                {
                    OFFSET	 0.00	0.00	 1.51507020887566
                    CHANNELS 3 Zrotation Xrotation Yrotation
                    End Site 
                    {
                        OFFSET	 0.00	0.00	 0.749999965609858
                    }
                }   
			}
		}
	}
}
MOTION 
Frames:	13 
Frame Time: 0.02 
 -1.9433200073242187 -2.089530029296875 9.37698974609375 -140.442 75.286 165.764 6.04826 -29.7305 -0.446949 -3.18502 12.7546 0.417062 16.4662 36.5421 -6.43027 -32.119 -69.5047 697.519 -119.9683 2.26696 10.8485 -41.56 11.289 -348.327 0.0 12.5234 0.0 6.57216 -11.3179 25.0071 0.0 0.0 0.0 0.0 0.0 0.0 122.0594 -2.54277 -3.95906 43.3972 5.13915 -379.41 0.0 13.1549 0.0 -1.30376 -5.46959 -7.74091 0.0 0.0 0.0 0.0 0.0 0.0 -1.87994 -9.95466 -21.9496 0.0 6.03465 0.0 1.61036 -3.0783997 21.1984 0.0 -10.9459305 0.0 9.72299 -8.76935 394.862 0.0 4.04872 0.0 2.70052 3.7985 -28.9897 0.0 -18.46594 0.0 
  -1.940800018310547 -2.094969940185547 9.376420288085937 -140.499 75.2641 165.802 6.03035 -29.6824 -0.495455 -3.10755 12.675 0.382128 16.4377 36.7375 -6.37297 -32.3646 -69.5167 697.294 -119.8026 1.94924 10.5417 -41.8281 9.8341 -348.503 0.0 11.8717 0.0 6.87276 -11.698 25.5671 0.0 0.0 0.0 0.0 0.0 0.0 122.0113 -2.68366 -3.91247 43.5056 4.33936 -378.894 0.0 12.3536 0.0 -0.729112 -6.03564 -11.0802 0.0 0.0 0.0 0.0 0.0 0.0 -1.88605 -9.93881 -21.9512 0.0 6.03527 0.0 1.64146 -3.0986004 21.2297 0.0 -10.96422 0.0 9.71688 -8.74787 394.885 0.0 4.03458 0.0 2.66219 3.7868996 -29.0157 0.0 -18.46314 0.0 
  -1.9375700378417968 -2.101199951171875 9.376129760742188 -140.554 75.1762 165.845 6.02721 -29.7209 -0.52475 -3.02883 12.5683 0.362012 16.3995 37.037 -6.26972 -32.6213 -69.5275 696.999 -119.634705 1.60738 10.3355 -42.1763 8.52628 -349.665 0.0 11.0723 0.0 6.99455 -11.8586 26.3737 0.0 0.0 0.0 0.0 0.0 0.0 121.934204 -2.88916 -3.91916 43.6267 3.63711 -378.39 0.0 11.5873 0.0 -0.536516 -6.31211 -11.5937 0.0 0.0 0.0 0.0 0.0 0.0 -1.87616 -9.95913 -22.0992 0.0 5.99382 0.0 1.64602 -3.1138992 21.3832 0.0 -10.9733 0.0 9.72158 -8.79013 394.93 0.0 4.02947 0.0 2.65044 3.7748003 -29.024 0.0 -18.48658 0.0 
  -1.9362800598144532 -2.1058599853515627 9.375239868164062 -140.477 75.1834 165.906 5.91865 -29.6431 -0.703623 -2.93192 12.4644 0.276857 16.3778 37.245 -6.20716 -32.7506 -69.5022 696.875 -119.4372 1.2517 10.0929 -42.5486 7.23017 -351.098 0.0 10.3109 0.0 7.04939 -11.8759 26.5964 0.0 0.0 0.0 0.0 0.0 0.0 121.8349 -3.04439 -3.82398 43.7822 2.79871 -378.069 0.0 11.0634 0.0 -0.585078 -6.52686 -11.9746 0.0 0.0 0.0 0.0 0.0 0.0 -1.89051 -9.98827 -22.1007 0.0 6.10676 0.0 1.69016 -3.1515007 21.2486 0.0 -11.00975 0.0 9.7219 -8.74691 394.783 0.0 4.02256 0.0 2.60662 3.7373 -29.0305 0.0 -18.48546 0.0 
  -1.9321600341796874 -2.1173500061035155 9.375239868164062 -140.802 75.1565 165.975 5.93275 -29.7381 -0.598269 -2.87461 12.4529 0.422417 16.3997 37.5041 -6.19385 -32.9003 -69.4564 696.751 -119.2273 0.919648 9.95803 -42.9401 6.04152 -352.826 0.0 9.45767 0.0 6.93148 -11.9074 25.8835 0.0 0.0 0.0 0.0 0.0 0.0 121.6993 -3.27031 -3.7722 43.9539 2.01828 -377.822 0.0 10.6538 0.0 -0.493822 -6.74489 -12.268 0.0 0.0 0.0 0.0 0.0 0.0 -1.88833 -9.84044 -21.9859 0.0 5.92864 0.0 1.75274 -3.1114006 21.4205 0.0 -11.00111 0.0 9.70103 -8.71981 395.111 0.0 4.04552 0.0 2.59899 3.7052002 -29.1006 0.0 -18.47728 0.0 
  -1.9293899536132812 -2.123679962158203 9.3747802734375 -140.842 75.0841 166.057 5.92368 -29.7835 -0.608822 -2.85099 12.3418 0.422879 16.4928 37.7828 -6.2624 -33.1132 -69.4397 696.553 -119.0407 0.599821 9.68736 -43.2695 4.91843 -354.799 0.0 8.4209 0.0 6.76556 -12.0222 24.9707 0.0 0.0 0.0 0.0 0.0 0.0 121.5793 -3.43142 -3.70785 44.1516 1.21294 -377.392 0.0 10.2785 0.0 -0.385892 -6.8057 -12.3498 0.0 0.0 0.0 0.0 0.0 0.0 -1.89684 -9.93222 -21.7094 0.0 6.0362 0.0 1.78042 -3.1767006 21.1289 0.0 -11.02124 0.0 9.70832 -8.753 395.082 0.0 4.05677 0.0 2.54126 3.7025003 -29.1217 0.0 -18.51086 0.0 
  -1.9264300537109376 -2.125429992675781 9.374559936523438 -140.772 75.0852 166.055 5.96453 -29.6997 -0.565076 -2.87574 12.1904 0.394621 16.6096 38.1096 -6.33137 -33.4269 -69.4815 696.243 -118.8962 0.317406 9.45291 -43.5271 3.99605 -357.159 0.0 7.18902 0.0 6.32087 -12.2739 23.8518 0.0 0.0 0.0 0.0 0.0 0.0 121.505 -3.5998 -3.65906 44.3059 0.50677 -376.924 0.0 9.97396 0.0 -0.169353 -6.82413 -12.4362 0.0 0.0 0.0 0.0 0.0 0.0 -1.91958 -9.95497 -21.8237 0.0 6.12126 0.0 1.78926 -3.2078 21.1695 0.0 -11.03056 0.0 9.70517 -8.73819 395.013 0.0 4.07226 0.0 2.5558 3.6582003 -29.1076 0.0 -18.505909 0.0 
  -1.9236300659179688 -2.134989929199219 9.374400024414063 -140.809 75.1307 165.963 5.99079 -29.7325 -0.469381 -2.85876 12.1924 0.493884 16.6851 38.3772 -6.38227 -33.5361 -69.4191 696.141 -118.7312 0.00159122 9.19708 -43.7564 3.2184 -359.642 0.0 5.94152 0.0 5.96874 -12.6883 23.4632 0.0 0.0 0.0 0.0 0.0 0.0 121.3592 -3.76349 -3.56791 44.5286 -0.18588 -376.748 0.0 9.81536 0.0 -0.0499915 -6.99969 -12.5996 0.0 0.0 0.0 0.0 0.0 0.0 -1.88273 -9.7582 -21.8626 0.0 5.9638 0.0 1.80495 -3.1952 21.3401 0.0 -11.03093 0.0 9.72075 -8.6403 395.116 0.0 4.09224 0.0 2.49215 3.6695995 -29.1185 0.0 -18.51016 0.0 
  -1.9219599914550782 -2.1390699768066406 9.374080200195312 -140.723 75.1411 165.921 5.97303 -29.7085 -0.468555 -2.81316 12.0978 0.518476 16.7508 38.6725 -6.42803 -33.7534 -69.3782 695.916 -118.6421 -0.28854 9.00007 -43.8921 2.58519 -362.096 0.0 4.7443 0.0 5.91347 -13.1698 23.7707 0.0 0.0 0.0 0.0 0.0 0.0 121.2258 -3.86447 -3.58927 44.73 -0.780765 -376.519 0.0 9.65479 0.0 0.03835 -6.88321 -12.5643 0.0 0.0 0.0 0.0 0.0 0.0 -1.87986 -9.76561 -21.7097 0.0 6.0511 0.0 1.82513 -3.2525005 21.1664 0.0 -11.0267105 0.0 9.74592 -8.60907 395.114 0.0 4.12209 0.0 2.45136 3.6552 -29.1797 0.0 -18.50324 0.0 
  -1.9181399536132813 -2.143939971923828 9.374110107421876 -140.705 75.1548 165.93 5.99422 -29.7394 -0.412412 -2.80432 12.0445 0.565305 16.7732 38.9643 -6.44629 -33.973 -69.3018 695.677 -118.5246 -0.496358 8.83484 -44.0415 1.99538 -363.962 0.0 3.70407 0.0 6.08998 -13.6505 24.2422 0.0 0.0 0.0 0.0 0.0 0.0 121.1121 -3.96576 -3.56926 44.8949 -1.32535 -376.361 0.0 9.61949 0.0 0.201099 -7.03589 -12.5592 0.0 0.0 0.0 0.0 0.0 0.0 -1.89467 -9.7044 -21.8793 0.0 6.03633 0.0 1.84559 -3.2418995 21.3116 0.0 -11.04001 0.0 9.73672 -8.55859 395.187 0.0 4.12987 0.0 2.4398 3.6281004 -29.2779 0.0 -18.48761 0.0 
  -1.915240020751953 -2.1481399536132812 9.374110107421876 -140.646 75.1751 165.928 5.99548 -29.7634 -0.390304 -2.78282 11.9949 0.596735 16.7832 39.2332 -6.4703 -34.2121 -69.2064 695.474 -118.433 -0.663233 8.72762 -44.1413 1.55847 -365.349 0.0 2.76585 0.0 6.23505 -14.1019 24.9781 0.0 0.0 0.0 0.0 0.0 0.0 121.004196 -4.06094 -3.54725 45.0645 -1.73994 -376.262 0.0 9.55181 0.0 0.304163 -7.05208 -12.7811 0.0 0.0 0.0 0.0 0.0 0.0 -1.90103 -9.6689 -21.8493 0.0 6.05777 0.0 1.879 -3.2429008 21.2475 0.0 -11.047359 0.0 9.73594 -8.50924 395.224 0.0 4.14265 0.0 2.45076 3.6014996 -29.3585 0.0 -18.5099 0.0 
  -1.912550048828125 -2.1509100341796876 9.374149780273438 -140.586 75.1922 165.913 6.0016 -29.778 -0.372012 -2.74205 11.9369 0.618989 16.7262 39.4745 -6.42969 -34.4294 -69.087 695.309 -118.3831 -0.773015 8.68641 -44.202 1.20881 -366.258 0.0 2.07736 0.0 6.21261 -14.6058 25.3582 0.0 0.0 0.0 0.0 0.0 0.0 120.9049 -4.12146 -3.51217 45.2065 -2.06536 -376.21 0.0 9.53205 0.0 0.459914 -7.15385 -12.2529 0.0 0.0 0.0 0.0 0.0 0.0 -1.9074 -9.63285 -21.8998 0.0 6.06323 0.0 1.90077 -3.2416 21.2656 0.0 -11.04749 0.0 9.73676 -8.47759 395.244 0.0 4.16654 0.0 2.47587 3.5646 -29.4022 0.0 -18.52353 0.0 
  -1.9103199768066406 -2.1536199951171877 9.37406005859375 -140.474 75.2251 165.884 5.99732 -29.8018 -0.381247 -2.73147 11.9101 0.61602 16.6755 39.6793 -6.38299 -34.5355 -68.9605 695.281 -118.2911 -0.86169 8.66279 -44.3251 0.96547 -366.14 0.0 1.57853 0.0 6.04668 -14.8809 26.6515 0.0 0.0 0.0 0.0 0.0 0.0 120.8629 -4.16695 -3.51391 45.2901 -2.22429 -376.218 0.0 9.52757 0.0 0.629227 -7.25754 -12.5203 0.0 0.0 0.0 0.0 0.0 0.0 -1.9054 -9.58321 -21.9564 0.0 6.06547 0.0 1.90005 -3.2502995 21.243 0.0 -11.05414 0.0 9.74265 -8.42398 395.259 0.0 4.181 0.0 2.47567 3.5444002 -29.4932 0.0 -18.55466 0.0 
